<svg xmlns="http://www.w3.org/2000/svg" width="800" height="1224" viewBox="0 0 800 1224" role="img" aria-labelledby="title desc"><title id="title">lynx-monitoring-architecture.svg</title><desc id="desc">四类采集源关联到页面加载记录，检查归属、时间和重复事件，再汇总结果、采样上报并形成统计和单次定位。</desc><defs><marker id="a" markerWidth="8" markerHeight="8" refX="7" refY="4" orient="auto-start-reverse"><path d="M0 0L8 4L0 8Z" fill="#247267"/></marker></defs><rect width="800" height="1224" rx="16" fill="#f7faf9"/><g font-family="Microsoft YaHei, PingFang SC, sans-serif"><text x="32" y="48" fill="#263b42" font-size="31" text-anchor="start" font-weight="600">页面加载监控架构</text>
<text x="32" y="87" fill="#647779" font-size="23" text-anchor="start" font-weight="400">原始事件按一次打开、一次加载关联</text>
<rect x="32" y="125" width="350" height="105" rx="12" fill="#fff" stroke="#cbdcd8"/>
<text x="207" y="168.5" fill="#247267" font-size="28" text-anchor="middle" font-weight="600">宿主容器</text>
<text x="207" y="204.5" fill="#263b42" font-size="24" text-anchor="middle" font-weight="400">入口 · 生命周期 · 可见性</text>
<rect x="418" y="125" width="350" height="105" rx="12" fill="#fff" stroke="#cbdcd8"/>
<text x="593" y="168.5" fill="#247267" font-size="28" text-anchor="middle" font-weight="600">资源加载器</text>
<text x="593" y="204.5" fill="#263b42" font-size="24" text-anchor="middle" font-weight="400">来源 · 尝试记录 · 错误</text>
<rect x="32" y="262" width="350" height="105" rx="12" fill="#fff" stroke="#cbdcd8"/>
<text x="207" y="305.5" fill="#247267" font-size="28" text-anchor="middle" font-weight="600">Lynx 性能事件</text>
<text x="207" y="341.5" fill="#263b42" font-size="24" text-anchor="middle" font-weight="400">首次加载 · 渲染过程</text>
<rect x="418" y="262" width="350" height="105" rx="12" fill="#fff" stroke="#cbdcd8"/>
<text x="593" y="305.5" fill="#247267" font-size="28" text-anchor="middle" font-weight="600">业务标记</text>
<text x="593" y="341.5" fill="#263b42" font-size="24" text-anchor="middle" font-weight="400">关键模块 · 数据版本</text>
<path d="M32 178H16V412H400V441" fill="none" stroke="#247267" stroke-width="2.5" marker-end="url(#a)"/>
<path d="M768 178H784V412H400" fill="none" stroke="#247267" stroke-width="2.5"/>
<path d="M207 367V412" fill="none" stroke="#247267" stroke-width="2.5"/>
<path d="M593 367V412" fill="none" stroke="#247267" stroke-width="2.5"/>
<rect x="80" y="450" width="640" height="158" rx="12" fill="#eaf3ef" stroke="#cbdcd8"/>
<text x="400" y="502" fill="#247267" font-size="28" text-anchor="middle" font-weight="600">页面加载记录</text>
<text x="400" y="538" fill="#263b42" font-size="24" text-anchor="middle" font-weight="400">打开编号 + 加载编号</text>
<text x="400" y="574" fill="#263b42" font-size="24" text-anchor="middle" font-weight="400">归属检查 · 时间统一 · 事件去重</text>
<path d="M400 609V656" fill="none" stroke="#247267" stroke-width="2.5" marker-end="url(#a)"/>
<rect x="80" y="666" width="640" height="119" rx="12" fill="#fff" stroke="#cbdcd8"/>
<text x="400" y="716.5" fill="#247267" font-size="28" text-anchor="middle" font-weight="600">指标与结果汇总</text>
<text x="400" y="752.5" fill="#263b42" font-size="24" text-anchor="middle" font-weight="400">阶段耗时 · 成功 / 失败 / 超时 / 中断</text>
<path d="M400 785V835" fill="none" stroke="#247267" stroke-width="2.5" marker-end="url(#a)"/>
<rect x="80" y="846" width="640" height="106" rx="12" fill="#fff" stroke="#cbdcd8"/>
<text x="400" y="890" fill="#247267" font-size="28" text-anchor="middle" font-weight="600">采样与上报</text>
<text x="400" y="926" fill="#263b42" font-size="24" text-anchor="middle" font-weight="400">同一页面的事件使用同一采样决定</text>
<path d="M400 952V996H207V1028" fill="none" stroke="#247267" stroke-width="2.5" marker-end="url(#a)"/>
<path d="M400 996H593V1028" fill="none" stroke="#247267" stroke-width="2.5" marker-end="url(#a)"/>
<rect x="32" y="1040" width="350" height="96" rx="12" fill="#fff" stroke="#cbdcd8"/>
<text x="207" y="1079" fill="#247267" font-size="28" text-anchor="middle" font-weight="600">统计趋势</text>
<text x="207" y="1115" fill="#263b42" font-size="24" text-anchor="middle" font-weight="400">耗时分布 · 错误率</text>
<rect x="418" y="1040" width="350" height="96" rx="12" fill="#fff" stroke="#cbdcd8"/>
<text x="593" y="1079" fill="#247267" font-size="28" text-anchor="middle" font-weight="600">单次定位</text>
<text x="593" y="1115" fill="#263b42" font-size="24" text-anchor="middle" font-weight="400">时序 · 资源 · 异常关联</text>
<text x="400" y="1184" fill="#647779" font-size="24" text-anchor="middle" font-weight="400">异常全量记录与采样统计分开计算分母</text></g></svg>
